<svg xmlns="http://www.w3.org/2000/svg" xmlns:xlink="http://www.w3.org/1999/xlink" width="118.551" height="737.999" viewBox="0 0 118.551 737.999">
  <defs>
    <clipPath id="clip-path">
      <rect width="118.551" height="737.999" fill="none"/>
    </clipPath>
    <clipPath id="clip-path-2">
      <rect id="Rectangle_2170" data-name="Rectangle 2170" width="118.551" height="176.657" fill="none"/>
    </clipPath>
  </defs>
  <g id="Repeat_Grid_35" data-name="Repeat Grid 35" opacity="0.5" clip-path="url(#clip-path)">
    <g id="Group_1499" data-name="Group 1499" transform="translate(0 0)">
      <g id="Group_1498" data-name="Group 1498" transform="translate(-0.275 -8)" clip-path="url(#clip-path-2)">
        <g id="Group_1497" data-name="Group 1497">
          <g id="Group_1496" data-name="Group 1496" clip-path="url(#clip-path-2)">
            <g id="Group_1495" data-name="Group 1495" opacity="0.1">
              <g id="Group_1494" data-name="Group 1494">
                <g id="Group_1493" data-name="Group 1493" clip-path="url(#clip-path-2)">
                  <path id="Path_2688" data-name="Path 2688" d="M0,3.933,6.473,0,20.647,7.944v8.033L13.682,19.5l-.244-7.7Z" transform="translate(0 0)" fill="#fff"/>
                  <path id="Path_2689" data-name="Path 2689" d="M0,10.228,20.154,21.862l-6.473,4.1L0,17.682Z" transform="translate(0 1.818)" fill="#fff"/>
                  <path id="Path_2690" data-name="Path 2690" d="M0,24.2l6.914-4.093v7.861L0,32.475Z" transform="translate(0 3.574)" fill="#fff"/>
                  <path id="Path_2691" data-name="Path 2691" d="M0,43.729,6.473,39.8,20.647,47.74v8.033L13.682,59.3l-.244-7.7Z" transform="translate(0 7.073)" fill="#fff"/>
                  <path id="Path_2692" data-name="Path 2692" d="M0,50.025,20.154,61.658l-6.473,4.1L0,57.479Z" transform="translate(0 8.891)" fill="#fff"/>
                  <path id="Path_2693" data-name="Path 2693" d="M0,64,6.914,59.9v7.861L0,72.272Z" transform="translate(0 10.646)" fill="#fff"/>
                  <path id="Path_2694" data-name="Path 2694" d="M0,83.526l6.473-3.932,14.174,7.944V95.57l-6.965,3.523-.244-7.7Z" transform="translate(0 14.146)" fill="#fff"/>
                  <path id="Path_2695" data-name="Path 2695" d="M0,89.821l20.154,11.634-6.473,4.1L0,97.275Z" transform="translate(0 15.963)" fill="#fff"/>
                  <path id="Path_2696" data-name="Path 2696" d="M0,103.794,6.914,99.7v7.861L0,112.069Z" transform="translate(0 17.719)" fill="#fff"/>
                  <path id="Path_2697" data-name="Path 2697" d="M27.858,3.933,34.33,0,48.5,7.944v8.033L41.539,19.5,41.3,11.8Z" transform="translate(4.951 0)" fill="#fff"/>
                  <path id="Path_2698" data-name="Path 2698" d="M27.858,10.228,48.012,21.862l-6.473,4.1L27.858,17.682Z" transform="translate(4.951 1.818)" fill="#fff"/>
                  <path id="Path_2699" data-name="Path 2699" d="M27.858,24.2l6.914-4.093v7.861l-6.914,4.506Z" transform="translate(4.951 3.574)" fill="#fff"/>
                  <path id="Path_2700" data-name="Path 2700" d="M27.858,43.729,34.33,39.8,48.5,47.74v8.033L41.539,59.3,41.3,51.6Z" transform="translate(4.951 7.073)" fill="#fff"/>
                  <path id="Path_2701" data-name="Path 2701" d="M27.858,50.025,48.012,61.658l-6.473,4.1L27.858,57.479Z" transform="translate(4.951 8.891)" fill="#fff"/>
                  <path id="Path_2702" data-name="Path 2702" d="M27.858,64,34.772,59.9v7.861l-6.914,4.506Z" transform="translate(4.951 10.646)" fill="#fff"/>
                  <path id="Path_2703" data-name="Path 2703" d="M27.858,83.526l6.473-3.932L48.5,87.537V95.57l-6.965,3.523-.244-7.7Z" transform="translate(4.951 14.146)" fill="#fff"/>
                  <path id="Path_2704" data-name="Path 2704" d="M27.858,89.821l20.154,11.634-6.473,4.1L27.858,97.275Z" transform="translate(4.951 15.963)" fill="#fff"/>
                  <path id="Path_2705" data-name="Path 2705" d="M27.858,103.794,34.772,99.7v7.861l-6.914,4.506Z" transform="translate(4.951 17.719)" fill="#fff"/>
                  <path id="Path_2706" data-name="Path 2706" d="M55.273,3.933,61.746,0,75.92,7.944v8.033L68.955,19.5l-.244-7.7Z" transform="translate(9.823 0)" fill="#fff"/>
                  <path id="Path_2707" data-name="Path 2707" d="M55.273,10.228,75.427,21.862l-6.473,4.1L55.273,17.682Z" transform="translate(9.823 1.818)" fill="#fff"/>
                  <path id="Path_2708" data-name="Path 2708" d="M55.273,24.2l6.914-4.093v7.861l-6.914,4.506Z" transform="translate(9.823 3.574)" fill="#fff"/>
                  <path id="Path_2709" data-name="Path 2709" d="M55.273,43.729,61.746,39.8,75.92,47.74v8.033L68.955,59.3l-.244-7.7Z" transform="translate(9.823 7.073)" fill="#fff"/>
                  <path id="Path_2710" data-name="Path 2710" d="M55.273,50.025,75.427,61.658l-6.473,4.1L55.273,57.479Z" transform="translate(9.823 8.891)" fill="#fff"/>
                  <path id="Path_2711" data-name="Path 2711" d="M55.273,64,62.187,59.9v7.861l-6.914,4.506Z" transform="translate(9.823 10.646)" fill="#fff"/>
                  <path id="Path_2712" data-name="Path 2712" d="M55.273,83.526l6.473-3.932L75.92,87.537V95.57l-6.965,3.523-.244-7.7Z" transform="translate(9.823 14.146)" fill="#fff"/>
                  <path id="Path_2713" data-name="Path 2713" d="M55.273,89.821l20.154,11.634-6.473,4.1L55.273,97.275Z" transform="translate(9.823 15.963)" fill="#fff"/>
                  <path id="Path_2714" data-name="Path 2714" d="M55.273,103.794,62.187,99.7v7.861l-6.914,4.506Z" transform="translate(9.823 17.719)" fill="#fff"/>
                  <path id="Path_2715" data-name="Path 2715" d="M83.131,3.933,89.6,0l14.174,7.944v8.033L96.812,19.5l-.244-7.7Z" transform="translate(14.774 0)" fill="#fff"/>
                  <path id="Path_2716" data-name="Path 2716" d="M83.131,10.228l20.154,11.634-6.473,4.1L83.131,17.682Z" transform="translate(14.774 1.818)" fill="#fff"/>
                  <path id="Path_2717" data-name="Path 2717" d="M83.131,24.2l6.914-4.093v7.861l-6.914,4.506Z" transform="translate(14.774 3.574)" fill="#fff"/>
                  <path id="Path_2718" data-name="Path 2718" d="M83.131,43.729,89.6,39.8l14.174,7.944v8.033L96.812,59.3l-.244-7.7Z" transform="translate(14.774 7.073)" fill="#fff"/>
                  <path id="Path_2719" data-name="Path 2719" d="M83.131,50.025l20.154,11.634-6.473,4.1L83.131,57.479Z" transform="translate(14.774 8.891)" fill="#fff"/>
                  <path id="Path_2720" data-name="Path 2720" d="M83.131,64,90.045,59.9v7.861l-6.914,4.506Z" transform="translate(14.774 10.646)" fill="#fff"/>
                  <path id="Path_2721" data-name="Path 2721" d="M83.131,83.526,89.6,79.593l14.174,7.944V95.57l-6.965,3.523-.244-7.7Z" transform="translate(14.774 14.146)" fill="#fff"/>
                  <path id="Path_2722" data-name="Path 2722" d="M83.131,89.821l20.154,11.634-6.473,4.1L83.131,97.275Z" transform="translate(14.774 15.963)" fill="#fff"/>
                  <path id="Path_2723" data-name="Path 2723" d="M83.131,103.794,90.045,99.7v7.861l-6.914,4.506Z" transform="translate(14.774 17.719)" fill="#fff"/>
                  <path id="Path_2724" data-name="Path 2724" d="M0,123.322l6.473-3.932,14.174,7.944v8.033l-6.965,3.523-.244-7.7Z" transform="translate(0 21.218)" fill="#fff"/>
                  <path id="Path_2725" data-name="Path 2725" d="M0,129.618l20.154,11.634-6.473,4.1L0,137.072Z" transform="translate(0 23.036)" fill="#fff"/>
                  <path id="Path_2726" data-name="Path 2726" d="M0,143.59,6.914,139.5v7.861L0,151.865Z" transform="translate(0 24.792)" fill="#fff"/>
                  <path id="Path_2727" data-name="Path 2727" d="M27.858,123.322l6.473-3.932L48.5,127.334v8.033l-6.965,3.523-.244-7.7Z" transform="translate(4.951 21.218)" fill="#fff"/>
                  <path id="Path_2728" data-name="Path 2728" d="M27.858,129.618l20.154,11.634-6.473,4.1-13.682-8.277Z" transform="translate(4.951 23.036)" fill="#fff"/>
                  <path id="Path_2729" data-name="Path 2729" d="M27.858,143.59l6.914-4.093v7.861l-6.914,4.506Z" transform="translate(4.951 24.792)" fill="#fff"/>
                  <path id="Path_2730" data-name="Path 2730" d="M55.273,123.322l6.473-3.932,14.174,7.944v8.033l-6.965,3.523-.244-7.7Z" transform="translate(9.823 21.218)" fill="#fff"/>
                  <path id="Path_2731" data-name="Path 2731" d="M55.273,129.618l20.154,11.634-6.473,4.1-13.682-8.277Z" transform="translate(9.823 23.036)" fill="#fff"/>
                  <path id="Path_2732" data-name="Path 2732" d="M55.273,143.59l6.914-4.093v7.861l-6.914,4.506Z" transform="translate(9.823 24.792)" fill="#fff"/>
                  <path id="Path_2733" data-name="Path 2733" d="M83.131,123.322,89.6,119.39l14.174,7.944v8.033l-6.965,3.523-.244-7.7Z" transform="translate(14.774 21.218)" fill="#fff"/>
                  <path id="Path_2734" data-name="Path 2734" d="M83.131,129.618l20.154,11.634-6.473,4.1-13.682-8.277Z" transform="translate(14.774 23.036)" fill="#fff"/>
                  <path id="Path_2735" data-name="Path 2735" d="M83.131,143.59l6.914-4.093v7.861l-6.914,4.506Z" transform="translate(14.774 24.792)" fill="#fff"/>
                </g>
              </g>
            </g>
          </g>
        </g>
      </g>
    </g>
    <g id="Group_1499-2" data-name="Group 1499" transform="translate(0 197)">
      <g id="Group_1498-2" data-name="Group 1498" transform="translate(-0.275 -8)" clip-path="url(#clip-path-2)">
        <g id="Group_1497-2" data-name="Group 1497">
          <g id="Group_1496-2" data-name="Group 1496" clip-path="url(#clip-path-2)">
            <g id="Group_1495-2" data-name="Group 1495" opacity="0.1">
              <g id="Group_1494-2" data-name="Group 1494">
                <g id="Group_1493-2" data-name="Group 1493" clip-path="url(#clip-path-2)">
                  <path id="Path_2688-2" data-name="Path 2688" d="M0,3.933,6.473,0,20.647,7.944v8.033L13.682,19.5l-.244-7.7Z" transform="translate(0 0)" fill="#fff"/>
                  <path id="Path_2689-2" data-name="Path 2689" d="M0,10.228,20.154,21.862l-6.473,4.1L0,17.682Z" transform="translate(0 1.818)" fill="#fff"/>
                  <path id="Path_2690-2" data-name="Path 2690" d="M0,24.2l6.914-4.093v7.861L0,32.475Z" transform="translate(0 3.574)" fill="#fff"/>
                  <path id="Path_2691-2" data-name="Path 2691" d="M0,43.729,6.473,39.8,20.647,47.74v8.033L13.682,59.3l-.244-7.7Z" transform="translate(0 7.073)" fill="#fff"/>
                  <path id="Path_2692-2" data-name="Path 2692" d="M0,50.025,20.154,61.658l-6.473,4.1L0,57.479Z" transform="translate(0 8.891)" fill="#fff"/>
                  <path id="Path_2693-2" data-name="Path 2693" d="M0,64,6.914,59.9v7.861L0,72.272Z" transform="translate(0 10.646)" fill="#fff"/>
                  <path id="Path_2694-2" data-name="Path 2694" d="M0,83.526l6.473-3.932,14.174,7.944V95.57l-6.965,3.523-.244-7.7Z" transform="translate(0 14.146)" fill="#fff"/>
                  <path id="Path_2695-2" data-name="Path 2695" d="M0,89.821l20.154,11.634-6.473,4.1L0,97.275Z" transform="translate(0 15.963)" fill="#fff"/>
                  <path id="Path_2696-2" data-name="Path 2696" d="M0,103.794,6.914,99.7v7.861L0,112.069Z" transform="translate(0 17.719)" fill="#fff"/>
                  <path id="Path_2697-2" data-name="Path 2697" d="M27.858,3.933,34.33,0,48.5,7.944v8.033L41.539,19.5,41.3,11.8Z" transform="translate(4.951 0)" fill="#fff"/>
                  <path id="Path_2698-2" data-name="Path 2698" d="M27.858,10.228,48.012,21.862l-6.473,4.1L27.858,17.682Z" transform="translate(4.951 1.818)" fill="#fff"/>
                  <path id="Path_2699-2" data-name="Path 2699" d="M27.858,24.2l6.914-4.093v7.861l-6.914,4.506Z" transform="translate(4.951 3.574)" fill="#fff"/>
                  <path id="Path_2700-2" data-name="Path 2700" d="M27.858,43.729,34.33,39.8,48.5,47.74v8.033L41.539,59.3,41.3,51.6Z" transform="translate(4.951 7.073)" fill="#fff"/>
                  <path id="Path_2701-2" data-name="Path 2701" d="M27.858,50.025,48.012,61.658l-6.473,4.1L27.858,57.479Z" transform="translate(4.951 8.891)" fill="#fff"/>
                  <path id="Path_2702-2" data-name="Path 2702" d="M27.858,64,34.772,59.9v7.861l-6.914,4.506Z" transform="translate(4.951 10.646)" fill="#fff"/>
                  <path id="Path_2703-2" data-name="Path 2703" d="M27.858,83.526l6.473-3.932L48.5,87.537V95.57l-6.965,3.523-.244-7.7Z" transform="translate(4.951 14.146)" fill="#fff"/>
                  <path id="Path_2704-2" data-name="Path 2704" d="M27.858,89.821l20.154,11.634-6.473,4.1L27.858,97.275Z" transform="translate(4.951 15.963)" fill="#fff"/>
                  <path id="Path_2705-2" data-name="Path 2705" d="M27.858,103.794,34.772,99.7v7.861l-6.914,4.506Z" transform="translate(4.951 17.719)" fill="#fff"/>
                  <path id="Path_2706-2" data-name="Path 2706" d="M55.273,3.933,61.746,0,75.92,7.944v8.033L68.955,19.5l-.244-7.7Z" transform="translate(9.823 0)" fill="#fff"/>
                  <path id="Path_2707-2" data-name="Path 2707" d="M55.273,10.228,75.427,21.862l-6.473,4.1L55.273,17.682Z" transform="translate(9.823 1.818)" fill="#fff"/>
                  <path id="Path_2708-2" data-name="Path 2708" d="M55.273,24.2l6.914-4.093v7.861l-6.914,4.506Z" transform="translate(9.823 3.574)" fill="#fff"/>
                  <path id="Path_2709-2" data-name="Path 2709" d="M55.273,43.729,61.746,39.8,75.92,47.74v8.033L68.955,59.3l-.244-7.7Z" transform="translate(9.823 7.073)" fill="#fff"/>
                  <path id="Path_2710-2" data-name="Path 2710" d="M55.273,50.025,75.427,61.658l-6.473,4.1L55.273,57.479Z" transform="translate(9.823 8.891)" fill="#fff"/>
                  <path id="Path_2711-2" data-name="Path 2711" d="M55.273,64,62.187,59.9v7.861l-6.914,4.506Z" transform="translate(9.823 10.646)" fill="#fff"/>
                  <path id="Path_2712-2" data-name="Path 2712" d="M55.273,83.526l6.473-3.932L75.92,87.537V95.57l-6.965,3.523-.244-7.7Z" transform="translate(9.823 14.146)" fill="#fff"/>
                  <path id="Path_2713-2" data-name="Path 2713" d="M55.273,89.821l20.154,11.634-6.473,4.1L55.273,97.275Z" transform="translate(9.823 15.963)" fill="#fff"/>
                  <path id="Path_2714-2" data-name="Path 2714" d="M55.273,103.794,62.187,99.7v7.861l-6.914,4.506Z" transform="translate(9.823 17.719)" fill="#fff"/>
                  <path id="Path_2715-2" data-name="Path 2715" d="M83.131,3.933,89.6,0l14.174,7.944v8.033L96.812,19.5l-.244-7.7Z" transform="translate(14.774 0)" fill="#fff"/>
                  <path id="Path_2716-2" data-name="Path 2716" d="M83.131,10.228l20.154,11.634-6.473,4.1L83.131,17.682Z" transform="translate(14.774 1.818)" fill="#fff"/>
                  <path id="Path_2717-2" data-name="Path 2717" d="M83.131,24.2l6.914-4.093v7.861l-6.914,4.506Z" transform="translate(14.774 3.574)" fill="#fff"/>
                  <path id="Path_2718-2" data-name="Path 2718" d="M83.131,43.729,89.6,39.8l14.174,7.944v8.033L96.812,59.3l-.244-7.7Z" transform="translate(14.774 7.073)" fill="#fff"/>
                  <path id="Path_2719-2" data-name="Path 2719" d="M83.131,50.025l20.154,11.634-6.473,4.1L83.131,57.479Z" transform="translate(14.774 8.891)" fill="#fff"/>
                  <path id="Path_2720-2" data-name="Path 2720" d="M83.131,64,90.045,59.9v7.861l-6.914,4.506Z" transform="translate(14.774 10.646)" fill="#fff"/>
                  <path id="Path_2721-2" data-name="Path 2721" d="M83.131,83.526,89.6,79.593l14.174,7.944V95.57l-6.965,3.523-.244-7.7Z" transform="translate(14.774 14.146)" fill="#fff"/>
                  <path id="Path_2722-2" data-name="Path 2722" d="M83.131,89.821l20.154,11.634-6.473,4.1L83.131,97.275Z" transform="translate(14.774 15.963)" fill="#fff"/>
                  <path id="Path_2723-2" data-name="Path 2723" d="M83.131,103.794,90.045,99.7v7.861l-6.914,4.506Z" transform="translate(14.774 17.719)" fill="#fff"/>
                  <path id="Path_2724-2" data-name="Path 2724" d="M0,123.322l6.473-3.932,14.174,7.944v8.033l-6.965,3.523-.244-7.7Z" transform="translate(0 21.218)" fill="#fff"/>
                  <path id="Path_2725-2" data-name="Path 2725" d="M0,129.618l20.154,11.634-6.473,4.1L0,137.072Z" transform="translate(0 23.036)" fill="#fff"/>
                  <path id="Path_2726-2" data-name="Path 2726" d="M0,143.59,6.914,139.5v7.861L0,151.865Z" transform="translate(0 24.792)" fill="#fff"/>
                  <path id="Path_2727-2" data-name="Path 2727" d="M27.858,123.322l6.473-3.932L48.5,127.334v8.033l-6.965,3.523-.244-7.7Z" transform="translate(4.951 21.218)" fill="#fff"/>
                  <path id="Path_2728-2" data-name="Path 2728" d="M27.858,129.618l20.154,11.634-6.473,4.1-13.682-8.277Z" transform="translate(4.951 23.036)" fill="#fff"/>
                  <path id="Path_2729-2" data-name="Path 2729" d="M27.858,143.59l6.914-4.093v7.861l-6.914,4.506Z" transform="translate(4.951 24.792)" fill="#fff"/>
                  <path id="Path_2730-2" data-name="Path 2730" d="M55.273,123.322l6.473-3.932,14.174,7.944v8.033l-6.965,3.523-.244-7.7Z" transform="translate(9.823 21.218)" fill="#fff"/>
                  <path id="Path_2731-2" data-name="Path 2731" d="M55.273,129.618l20.154,11.634-6.473,4.1-13.682-8.277Z" transform="translate(9.823 23.036)" fill="#fff"/>
                  <path id="Path_2732-2" data-name="Path 2732" d="M55.273,143.59l6.914-4.093v7.861l-6.914,4.506Z" transform="translate(9.823 24.792)" fill="#fff"/>
                  <path id="Path_2733-2" data-name="Path 2733" d="M83.131,123.322,89.6,119.39l14.174,7.944v8.033l-6.965,3.523-.244-7.7Z" transform="translate(14.774 21.218)" fill="#fff"/>
                  <path id="Path_2734-2" data-name="Path 2734" d="M83.131,129.618l20.154,11.634-6.473,4.1-13.682-8.277Z" transform="translate(14.774 23.036)" fill="#fff"/>
                  <path id="Path_2735-2" data-name="Path 2735" d="M83.131,143.59l6.914-4.093v7.861l-6.914,4.506Z" transform="translate(14.774 24.792)" fill="#fff"/>
                </g>
              </g>
            </g>
          </g>
        </g>
      </g>
    </g>
    <g id="Group_1499-3" data-name="Group 1499" transform="translate(0 394)">
      <g id="Group_1498-3" data-name="Group 1498" transform="translate(-0.275 -8)" clip-path="url(#clip-path-2)">
        <g id="Group_1497-3" data-name="Group 1497">
          <g id="Group_1496-3" data-name="Group 1496" clip-path="url(#clip-path-2)">
            <g id="Group_1495-3" data-name="Group 1495" opacity="0.1">
              <g id="Group_1494-3" data-name="Group 1494">
                <g id="Group_1493-3" data-name="Group 1493" clip-path="url(#clip-path-2)">
                  <path id="Path_2688-3" data-name="Path 2688" d="M0,3.933,6.473,0,20.647,7.944v8.033L13.682,19.5l-.244-7.7Z" transform="translate(0 0)" fill="#fff"/>
                  <path id="Path_2689-3" data-name="Path 2689" d="M0,10.228,20.154,21.862l-6.473,4.1L0,17.682Z" transform="translate(0 1.818)" fill="#fff"/>
                  <path id="Path_2690-3" data-name="Path 2690" d="M0,24.2l6.914-4.093v7.861L0,32.475Z" transform="translate(0 3.574)" fill="#fff"/>
                  <path id="Path_2691-3" data-name="Path 2691" d="M0,43.729,6.473,39.8,20.647,47.74v8.033L13.682,59.3l-.244-7.7Z" transform="translate(0 7.073)" fill="#fff"/>
                  <path id="Path_2692-3" data-name="Path 2692" d="M0,50.025,20.154,61.658l-6.473,4.1L0,57.479Z" transform="translate(0 8.891)" fill="#fff"/>
                  <path id="Path_2693-3" data-name="Path 2693" d="M0,64,6.914,59.9v7.861L0,72.272Z" transform="translate(0 10.646)" fill="#fff"/>
                  <path id="Path_2694-3" data-name="Path 2694" d="M0,83.526l6.473-3.932,14.174,7.944V95.57l-6.965,3.523-.244-7.7Z" transform="translate(0 14.146)" fill="#fff"/>
                  <path id="Path_2695-3" data-name="Path 2695" d="M0,89.821l20.154,11.634-6.473,4.1L0,97.275Z" transform="translate(0 15.963)" fill="#fff"/>
                  <path id="Path_2696-3" data-name="Path 2696" d="M0,103.794,6.914,99.7v7.861L0,112.069Z" transform="translate(0 17.719)" fill="#fff"/>
                  <path id="Path_2697-3" data-name="Path 2697" d="M27.858,3.933,34.33,0,48.5,7.944v8.033L41.539,19.5,41.3,11.8Z" transform="translate(4.951 0)" fill="#fff"/>
                  <path id="Path_2698-3" data-name="Path 2698" d="M27.858,10.228,48.012,21.862l-6.473,4.1L27.858,17.682Z" transform="translate(4.951 1.818)" fill="#fff"/>
                  <path id="Path_2699-3" data-name="Path 2699" d="M27.858,24.2l6.914-4.093v7.861l-6.914,4.506Z" transform="translate(4.951 3.574)" fill="#fff"/>
                  <path id="Path_2700-3" data-name="Path 2700" d="M27.858,43.729,34.33,39.8,48.5,47.74v8.033L41.539,59.3,41.3,51.6Z" transform="translate(4.951 7.073)" fill="#fff"/>
                  <path id="Path_2701-3" data-name="Path 2701" d="M27.858,50.025,48.012,61.658l-6.473,4.1L27.858,57.479Z" transform="translate(4.951 8.891)" fill="#fff"/>
                  <path id="Path_2702-3" data-name="Path 2702" d="M27.858,64,34.772,59.9v7.861l-6.914,4.506Z" transform="translate(4.951 10.646)" fill="#fff"/>
                  <path id="Path_2703-3" data-name="Path 2703" d="M27.858,83.526l6.473-3.932L48.5,87.537V95.57l-6.965,3.523-.244-7.7Z" transform="translate(4.951 14.146)" fill="#fff"/>
                  <path id="Path_2704-3" data-name="Path 2704" d="M27.858,89.821l20.154,11.634-6.473,4.1L27.858,97.275Z" transform="translate(4.951 15.963)" fill="#fff"/>
                  <path id="Path_2705-3" data-name="Path 2705" d="M27.858,103.794,34.772,99.7v7.861l-6.914,4.506Z" transform="translate(4.951 17.719)" fill="#fff"/>
                  <path id="Path_2706-3" data-name="Path 2706" d="M55.273,3.933,61.746,0,75.92,7.944v8.033L68.955,19.5l-.244-7.7Z" transform="translate(9.823 0)" fill="#fff"/>
                  <path id="Path_2707-3" data-name="Path 2707" d="M55.273,10.228,75.427,21.862l-6.473,4.1L55.273,17.682Z" transform="translate(9.823 1.818)" fill="#fff"/>
                  <path id="Path_2708-3" data-name="Path 2708" d="M55.273,24.2l6.914-4.093v7.861l-6.914,4.506Z" transform="translate(9.823 3.574)" fill="#fff"/>
                  <path id="Path_2709-3" data-name="Path 2709" d="M55.273,43.729,61.746,39.8,75.92,47.74v8.033L68.955,59.3l-.244-7.7Z" transform="translate(9.823 7.073)" fill="#fff"/>
                  <path id="Path_2710-3" data-name="Path 2710" d="M55.273,50.025,75.427,61.658l-6.473,4.1L55.273,57.479Z" transform="translate(9.823 8.891)" fill="#fff"/>
                  <path id="Path_2711-3" data-name="Path 2711" d="M55.273,64,62.187,59.9v7.861l-6.914,4.506Z" transform="translate(9.823 10.646)" fill="#fff"/>
                  <path id="Path_2712-3" data-name="Path 2712" d="M55.273,83.526l6.473-3.932L75.92,87.537V95.57l-6.965,3.523-.244-7.7Z" transform="translate(9.823 14.146)" fill="#fff"/>
                  <path id="Path_2713-3" data-name="Path 2713" d="M55.273,89.821l20.154,11.634-6.473,4.1L55.273,97.275Z" transform="translate(9.823 15.963)" fill="#fff"/>
                  <path id="Path_2714-3" data-name="Path 2714" d="M55.273,103.794,62.187,99.7v7.861l-6.914,4.506Z" transform="translate(9.823 17.719)" fill="#fff"/>
                  <path id="Path_2715-3" data-name="Path 2715" d="M83.131,3.933,89.6,0l14.174,7.944v8.033L96.812,19.5l-.244-7.7Z" transform="translate(14.774 0)" fill="#fff"/>
                  <path id="Path_2716-3" data-name="Path 2716" d="M83.131,10.228l20.154,11.634-6.473,4.1L83.131,17.682Z" transform="translate(14.774 1.818)" fill="#fff"/>
                  <path id="Path_2717-3" data-name="Path 2717" d="M83.131,24.2l6.914-4.093v7.861l-6.914,4.506Z" transform="translate(14.774 3.574)" fill="#fff"/>
                  <path id="Path_2718-3" data-name="Path 2718" d="M83.131,43.729,89.6,39.8l14.174,7.944v8.033L96.812,59.3l-.244-7.7Z" transform="translate(14.774 7.073)" fill="#fff"/>
                  <path id="Path_2719-3" data-name="Path 2719" d="M83.131,50.025l20.154,11.634-6.473,4.1L83.131,57.479Z" transform="translate(14.774 8.891)" fill="#fff"/>
                  <path id="Path_2720-3" data-name="Path 2720" d="M83.131,64,90.045,59.9v7.861l-6.914,4.506Z" transform="translate(14.774 10.646)" fill="#fff"/>
                  <path id="Path_2721-3" data-name="Path 2721" d="M83.131,83.526,89.6,79.593l14.174,7.944V95.57l-6.965,3.523-.244-7.7Z" transform="translate(14.774 14.146)" fill="#fff"/>
                  <path id="Path_2722-3" data-name="Path 2722" d="M83.131,89.821l20.154,11.634-6.473,4.1L83.131,97.275Z" transform="translate(14.774 15.963)" fill="#fff"/>
                  <path id="Path_2723-3" data-name="Path 2723" d="M83.131,103.794,90.045,99.7v7.861l-6.914,4.506Z" transform="translate(14.774 17.719)" fill="#fff"/>
                  <path id="Path_2724-3" data-name="Path 2724" d="M0,123.322l6.473-3.932,14.174,7.944v8.033l-6.965,3.523-.244-7.7Z" transform="translate(0 21.218)" fill="#fff"/>
                  <path id="Path_2725-3" data-name="Path 2725" d="M0,129.618l20.154,11.634-6.473,4.1L0,137.072Z" transform="translate(0 23.036)" fill="#fff"/>
                  <path id="Path_2726-3" data-name="Path 2726" d="M0,143.59,6.914,139.5v7.861L0,151.865Z" transform="translate(0 24.792)" fill="#fff"/>
                  <path id="Path_2727-3" data-name="Path 2727" d="M27.858,123.322l6.473-3.932L48.5,127.334v8.033l-6.965,3.523-.244-7.7Z" transform="translate(4.951 21.218)" fill="#fff"/>
                  <path id="Path_2728-3" data-name="Path 2728" d="M27.858,129.618l20.154,11.634-6.473,4.1-13.682-8.277Z" transform="translate(4.951 23.036)" fill="#fff"/>
                  <path id="Path_2729-3" data-name="Path 2729" d="M27.858,143.59l6.914-4.093v7.861l-6.914,4.506Z" transform="translate(4.951 24.792)" fill="#fff"/>
                  <path id="Path_2730-3" data-name="Path 2730" d="M55.273,123.322l6.473-3.932,14.174,7.944v8.033l-6.965,3.523-.244-7.7Z" transform="translate(9.823 21.218)" fill="#fff"/>
                  <path id="Path_2731-3" data-name="Path 2731" d="M55.273,129.618l20.154,11.634-6.473,4.1-13.682-8.277Z" transform="translate(9.823 23.036)" fill="#fff"/>
                  <path id="Path_2732-3" data-name="Path 2732" d="M55.273,143.59l6.914-4.093v7.861l-6.914,4.506Z" transform="translate(9.823 24.792)" fill="#fff"/>
                  <path id="Path_2733-3" data-name="Path 2733" d="M83.131,123.322,89.6,119.39l14.174,7.944v8.033l-6.965,3.523-.244-7.7Z" transform="translate(14.774 21.218)" fill="#fff"/>
                  <path id="Path_2734-3" data-name="Path 2734" d="M83.131,129.618l20.154,11.634-6.473,4.1-13.682-8.277Z" transform="translate(14.774 23.036)" fill="#fff"/>
                  <path id="Path_2735-3" data-name="Path 2735" d="M83.131,143.59l6.914-4.093v7.861l-6.914,4.506Z" transform="translate(14.774 24.792)" fill="#fff"/>
                </g>
              </g>
            </g>
          </g>
        </g>
      </g>
    </g>
    <g id="Group_1499-4" data-name="Group 1499" transform="translate(0 591)">
      <g id="Group_1498-4" data-name="Group 1498" transform="translate(-0.275 -8)" clip-path="url(#clip-path-2)">
        <g id="Group_1497-4" data-name="Group 1497">
          <g id="Group_1496-4" data-name="Group 1496" clip-path="url(#clip-path-2)">
            <g id="Group_1495-4" data-name="Group 1495" opacity="0.1">
              <g id="Group_1494-4" data-name="Group 1494">
                <g id="Group_1493-4" data-name="Group 1493" clip-path="url(#clip-path-2)">
                  <path id="Path_2688-4" data-name="Path 2688" d="M0,3.933,6.473,0,20.647,7.944v8.033L13.682,19.5l-.244-7.7Z" transform="translate(0 0)" fill="#fff"/>
                  <path id="Path_2689-4" data-name="Path 2689" d="M0,10.228,20.154,21.862l-6.473,4.1L0,17.682Z" transform="translate(0 1.818)" fill="#fff"/>
                  <path id="Path_2690-4" data-name="Path 2690" d="M0,24.2l6.914-4.093v7.861L0,32.475Z" transform="translate(0 3.574)" fill="#fff"/>
                  <path id="Path_2691-4" data-name="Path 2691" d="M0,43.729,6.473,39.8,20.647,47.74v8.033L13.682,59.3l-.244-7.7Z" transform="translate(0 7.073)" fill="#fff"/>
                  <path id="Path_2692-4" data-name="Path 2692" d="M0,50.025,20.154,61.658l-6.473,4.1L0,57.479Z" transform="translate(0 8.891)" fill="#fff"/>
                  <path id="Path_2693-4" data-name="Path 2693" d="M0,64,6.914,59.9v7.861L0,72.272Z" transform="translate(0 10.646)" fill="#fff"/>
                  <path id="Path_2694-4" data-name="Path 2694" d="M0,83.526l6.473-3.932,14.174,7.944V95.57l-6.965,3.523-.244-7.7Z" transform="translate(0 14.146)" fill="#fff"/>
                  <path id="Path_2695-4" data-name="Path 2695" d="M0,89.821l20.154,11.634-6.473,4.1L0,97.275Z" transform="translate(0 15.963)" fill="#fff"/>
                  <path id="Path_2696-4" data-name="Path 2696" d="M0,103.794,6.914,99.7v7.861L0,112.069Z" transform="translate(0 17.719)" fill="#fff"/>
                  <path id="Path_2697-4" data-name="Path 2697" d="M27.858,3.933,34.33,0,48.5,7.944v8.033L41.539,19.5,41.3,11.8Z" transform="translate(4.951 0)" fill="#fff"/>
                  <path id="Path_2698-4" data-name="Path 2698" d="M27.858,10.228,48.012,21.862l-6.473,4.1L27.858,17.682Z" transform="translate(4.951 1.818)" fill="#fff"/>
                  <path id="Path_2699-4" data-name="Path 2699" d="M27.858,24.2l6.914-4.093v7.861l-6.914,4.506Z" transform="translate(4.951 3.574)" fill="#fff"/>
                  <path id="Path_2700-4" data-name="Path 2700" d="M27.858,43.729,34.33,39.8,48.5,47.74v8.033L41.539,59.3,41.3,51.6Z" transform="translate(4.951 7.073)" fill="#fff"/>
                  <path id="Path_2701-4" data-name="Path 2701" d="M27.858,50.025,48.012,61.658l-6.473,4.1L27.858,57.479Z" transform="translate(4.951 8.891)" fill="#fff"/>
                  <path id="Path_2702-4" data-name="Path 2702" d="M27.858,64,34.772,59.9v7.861l-6.914,4.506Z" transform="translate(4.951 10.646)" fill="#fff"/>
                  <path id="Path_2703-4" data-name="Path 2703" d="M27.858,83.526l6.473-3.932L48.5,87.537V95.57l-6.965,3.523-.244-7.7Z" transform="translate(4.951 14.146)" fill="#fff"/>
                  <path id="Path_2704-4" data-name="Path 2704" d="M27.858,89.821l20.154,11.634-6.473,4.1L27.858,97.275Z" transform="translate(4.951 15.963)" fill="#fff"/>
                  <path id="Path_2705-4" data-name="Path 2705" d="M27.858,103.794,34.772,99.7v7.861l-6.914,4.506Z" transform="translate(4.951 17.719)" fill="#fff"/>
                  <path id="Path_2706-4" data-name="Path 2706" d="M55.273,3.933,61.746,0,75.92,7.944v8.033L68.955,19.5l-.244-7.7Z" transform="translate(9.823 0)" fill="#fff"/>
                  <path id="Path_2707-4" data-name="Path 2707" d="M55.273,10.228,75.427,21.862l-6.473,4.1L55.273,17.682Z" transform="translate(9.823 1.818)" fill="#fff"/>
                  <path id="Path_2708-4" data-name="Path 2708" d="M55.273,24.2l6.914-4.093v7.861l-6.914,4.506Z" transform="translate(9.823 3.574)" fill="#fff"/>
                  <path id="Path_2709-4" data-name="Path 2709" d="M55.273,43.729,61.746,39.8,75.92,47.74v8.033L68.955,59.3l-.244-7.7Z" transform="translate(9.823 7.073)" fill="#fff"/>
                  <path id="Path_2710-4" data-name="Path 2710" d="M55.273,50.025,75.427,61.658l-6.473,4.1L55.273,57.479Z" transform="translate(9.823 8.891)" fill="#fff"/>
                  <path id="Path_2711-4" data-name="Path 2711" d="M55.273,64,62.187,59.9v7.861l-6.914,4.506Z" transform="translate(9.823 10.646)" fill="#fff"/>
                  <path id="Path_2712-4" data-name="Path 2712" d="M55.273,83.526l6.473-3.932L75.92,87.537V95.57l-6.965,3.523-.244-7.7Z" transform="translate(9.823 14.146)" fill="#fff"/>
                  <path id="Path_2713-4" data-name="Path 2713" d="M55.273,89.821l20.154,11.634-6.473,4.1L55.273,97.275Z" transform="translate(9.823 15.963)" fill="#fff"/>
                  <path id="Path_2714-4" data-name="Path 2714" d="M55.273,103.794,62.187,99.7v7.861l-6.914,4.506Z" transform="translate(9.823 17.719)" fill="#fff"/>
                  <path id="Path_2715-4" data-name="Path 2715" d="M83.131,3.933,89.6,0l14.174,7.944v8.033L96.812,19.5l-.244-7.7Z" transform="translate(14.774 0)" fill="#fff"/>
                  <path id="Path_2716-4" data-name="Path 2716" d="M83.131,10.228l20.154,11.634-6.473,4.1L83.131,17.682Z" transform="translate(14.774 1.818)" fill="#fff"/>
                  <path id="Path_2717-4" data-name="Path 2717" d="M83.131,24.2l6.914-4.093v7.861l-6.914,4.506Z" transform="translate(14.774 3.574)" fill="#fff"/>
                  <path id="Path_2718-4" data-name="Path 2718" d="M83.131,43.729,89.6,39.8l14.174,7.944v8.033L96.812,59.3l-.244-7.7Z" transform="translate(14.774 7.073)" fill="#fff"/>
                  <path id="Path_2719-4" data-name="Path 2719" d="M83.131,50.025l20.154,11.634-6.473,4.1L83.131,57.479Z" transform="translate(14.774 8.891)" fill="#fff"/>
                  <path id="Path_2720-4" data-name="Path 2720" d="M83.131,64,90.045,59.9v7.861l-6.914,4.506Z" transform="translate(14.774 10.646)" fill="#fff"/>
                  <path id="Path_2721-4" data-name="Path 2721" d="M83.131,83.526,89.6,79.593l14.174,7.944V95.57l-6.965,3.523-.244-7.7Z" transform="translate(14.774 14.146)" fill="#fff"/>
                  <path id="Path_2722-4" data-name="Path 2722" d="M83.131,89.821l20.154,11.634-6.473,4.1L83.131,97.275Z" transform="translate(14.774 15.963)" fill="#fff"/>
                  <path id="Path_2723-4" data-name="Path 2723" d="M83.131,103.794,90.045,99.7v7.861l-6.914,4.506Z" transform="translate(14.774 17.719)" fill="#fff"/>
                  <path id="Path_2724-4" data-name="Path 2724" d="M0,123.322l6.473-3.932,14.174,7.944v8.033l-6.965,3.523-.244-7.7Z" transform="translate(0 21.218)" fill="#fff"/>
                  <path id="Path_2725-4" data-name="Path 2725" d="M0,129.618l20.154,11.634-6.473,4.1L0,137.072Z" transform="translate(0 23.036)" fill="#fff"/>
                  <path id="Path_2726-4" data-name="Path 2726" d="M0,143.59,6.914,139.5v7.861L0,151.865Z" transform="translate(0 24.792)" fill="#fff"/>
                  <path id="Path_2727-4" data-name="Path 2727" d="M27.858,123.322l6.473-3.932L48.5,127.334v8.033l-6.965,3.523-.244-7.7Z" transform="translate(4.951 21.218)" fill="#fff"/>
                  <path id="Path_2728-4" data-name="Path 2728" d="M27.858,129.618l20.154,11.634-6.473,4.1-13.682-8.277Z" transform="translate(4.951 23.036)" fill="#fff"/>
                  <path id="Path_2729-4" data-name="Path 2729" d="M27.858,143.59l6.914-4.093v7.861l-6.914,4.506Z" transform="translate(4.951 24.792)" fill="#fff"/>
                  <path id="Path_2730-4" data-name="Path 2730" d="M55.273,123.322l6.473-3.932,14.174,7.944v8.033l-6.965,3.523-.244-7.7Z" transform="translate(9.823 21.218)" fill="#fff"/>
                  <path id="Path_2731-4" data-name="Path 2731" d="M55.273,129.618l20.154,11.634-6.473,4.1-13.682-8.277Z" transform="translate(9.823 23.036)" fill="#fff"/>
                  <path id="Path_2732-4" data-name="Path 2732" d="M55.273,143.59l6.914-4.093v7.861l-6.914,4.506Z" transform="translate(9.823 24.792)" fill="#fff"/>
                  <path id="Path_2733-4" data-name="Path 2733" d="M83.131,123.322,89.6,119.39l14.174,7.944v8.033l-6.965,3.523-.244-7.7Z" transform="translate(14.774 21.218)" fill="#fff"/>
                  <path id="Path_2734-4" data-name="Path 2734" d="M83.131,129.618l20.154,11.634-6.473,4.1-13.682-8.277Z" transform="translate(14.774 23.036)" fill="#fff"/>
                  <path id="Path_2735-4" data-name="Path 2735" d="M83.131,143.59l6.914-4.093v7.861l-6.914,4.506Z" transform="translate(14.774 24.792)" fill="#fff"/>
                </g>
              </g>
            </g>
          </g>
        </g>
      </g>
    </g>
  </g>
</svg>
