<svg xmlns="http://www.w3.org/2000/svg" xmlns:xlink="http://www.w3.org/1999/xlink" width="36.777" height="34.637" viewBox="0 0 36.777 34.637">
  <defs>
    <clipPath id="clip-path">
      <rect id="Rectangle_1" data-name="Rectangle 1" width="36.777" height="34.637" fill="#707070"/>
    </clipPath>
  </defs>
  <g id="Group_1" data-name="Group 1" clip-path="url(#clip-path)">
    <path id="Path_1" data-name="Path 1" d="M0,16.455c.057-.243.108-.488.174-.729a5.032,5.032,0,0,1,4.745-3.708c.13,0,.261,0,.413,0a13,13,0,0,1,5.461-9.587A12.592,12.592,0,0,1,18.418,0a12.722,12.722,0,0,1,8.834,3.468,12.907,12.907,0,0,1,4.171,8.5c.5.061.963.086,1.416.18a4.968,4.968,0,0,1,3.918,4.743,34.47,34.47,0,0,1-.079,3.978,4.89,4.89,0,0,1-4.546,4.207c-.585.032-1.172.02-1.758.017a1.117,1.117,0,0,1-1.213-1.236q0-5.349,0-10.7a10.278,10.278,0,0,0-2.385-6.833A10.289,10.289,0,0,0,15.649,2.68c-4.4,1.158-7.019,4.168-7.89,8.647a10.363,10.363,0,0,0-.146,1.928c-.013,3.494-.006,6.988-.007,10.482,0,.879-.274,1.259-1.133,1.359-2.7.313-5.015-.617-6.077-3.075A11.307,11.307,0,0,1,0,20.692V16.455" transform="translate(0 0)" fill="#707070"/>
    <path id="Path_2" data-name="Path 2" d="M156.651,317.553c-.478,0-.957.008-1.435,0a2.295,2.295,0,0,1-.061-4.588c.992-.03,1.986-.032,2.977,0a2.294,2.294,0,0,1-.047,4.586c-.478.011-.957,0-1.435,0" transform="translate(-138.255 -282.919)" fill="#707070"/>
    <path id="Path_3" data-name="Path 3" d="M59.36,280.96v1.23a7.759,7.759,0,0,1-8.523-6.484h1.235c1.068,3.643,3.52,5.365,7.288,5.254" transform="translate(-45.96 -249.257)" fill="#707070"/>
  </g>
</svg>
