<svg xmlns="http://www.w3.org/2000/svg" width="39.023" height="44.805" viewBox="0 0 39.023 44.805">
  <g id="My_account_iconorange" transform="translate(1.003 1)">
    <path id="Path_670" data-name="Path 670" d="M52.75,96.789c-4.526,0-9.052.008-13.578,0a4.6,4.6,0,0,1-4.854-3.857,13.741,13.741,0,0,1,.239-4.419,17.637,17.637,0,0,1,10.286-12.9.971.971,0,0,1,1.032.08A12.139,12.139,0,0,0,59.2,75.553a.9.9,0,0,1,.961-.139,17.65,17.65,0,0,1,10.965,14.5,10.068,10.068,0,0,1,.024,3.04,4.647,4.647,0,0,1-4.557,3.826c-.244.009-.488.006-.732.006H52.75" transform="translate(-34.234 -53.986)" fill="none" stroke="#d17a52" stroke-width="2"/>
    <path id="Path_671" data-name="Path 671" d="M63.6,51.825a8.693,8.693,0,1,1,8.68-8.751,8.72,8.72,0,0,1-8.68,8.751" transform="translate(-45.378 -34.44)" fill="none" stroke="#d17a52" stroke-width="2"/>
  </g>
</svg>
