<svg xmlns="http://www.w3.org/2000/svg" width="49.133" height="41.305" viewBox="0 0 49.133 41.305">
  <path id="My_Wishes_Button_iconorange" d="M0,13.637V11.52c.061-.376.121-.753.184-1.129A12.329,12.329,0,0,1,15.8.465a12.756,12.756,0,0,1,7.118,5.443c.213.311.411.631.643.988.255-.39.468-.74.7-1.074C27.155,1.721,30.986-.456,36.115.1,43.286.873,47.971,7.272,46.99,14.436a14.661,14.661,0,0,1-3.071,6.891A41.472,41.472,0,0,1,37,28.238c-3.675,3.015-7.406,5.961-11.113,8.937-.774.621-1.545,1.246-2.309,1.863-.075-.047-.116-.067-.152-.1-3.594-2.871-7.2-5.732-10.779-8.618a63.656,63.656,0,0,1-8.4-7.7A16.871,16.871,0,0,1,.522,16.19c-.235-.834-.351-1.7-.522-2.553" transform="translate(1 1.042)" fill="none" stroke="#d17a52" stroke-width="2"/>
</svg>
