<svg xmlns="http://www.w3.org/2000/svg" xmlns:xlink="http://www.w3.org/1999/xlink" width="54" height="36.745" viewBox="0 0 54 36.745">
  <defs>
    <clipPath id="clip-path">
      <rect id="Rectangle_147984" data-name="Rectangle 147984" width="54" height="36.745" fill="#d17a52"/>
    </clipPath>
  </defs>
  <g id="payment-methodorange" clip-path="url(#clip-path)">
    <path id="Path_35805" data-name="Path 35805" d="M0,2.75A3.23,3.23,0,0,1,1.763.4,4.927,4.927,0,0,1,3.59.018C10.2-.008,16.809,0,23.418,0H50.312C52.7,0,54,1.293,54,3.673V33.051c0,2.38-1.3,3.671-3.687,3.671-15.433,0-30.867-.02-46.3.023C1.819,36.751.438,35.829,0,33.974Zm2.184,12.38c-.011.224-.027.4-.027.569q0,8.676,0,17.352c0,1.157.358,1.519,1.505,1.52H50.331c1.154,0,1.512-.359,1.512-1.514q0-8.676,0-17.352c0-.187-.018-.375-.028-.575Zm.006-6.5H51.808c.012-.17.033-.324.033-.478,0-1.529.007-3.058,0-4.588-.005-1.01-.4-1.405-1.406-1.405q-23.435,0-46.869,0c-1.013,0-1.4.393-1.409,1.4-.007,1.529,0,3.058,0,4.588,0,.154.021.308.033.48" transform="translate(0 0)" fill="#d17a52"/>
    <path id="Path_35806" data-name="Path 35806" d="M19.07,20.774h9.272a4.712,4.712,0,0,1,.63.024,1.057,1.057,0,0,1-.009,2.1,3.86,3.86,0,0,1-.526.02q-9.324,0-18.649,0a3.69,3.69,0,0,1-.578-.026A1.056,1.056,0,0,1,9.22,20.8a4.389,4.389,0,0,1,.63-.027H19.07" transform="translate(0.335 0.837)" fill="#d17a52"/>
    <path id="Path_35807" data-name="Path 35807" d="M14.745,27.071c-1.738,0-3.477.006-5.215,0a1.1,1.1,0,0,1-1.2-.939,1.058,1.058,0,0,1,.838-1.164,3.621,3.621,0,0,1,.629-.036H19.75c.106,0,.211,0,.316,0A1.107,1.107,0,0,1,21.259,26a1.1,1.1,0,0,1-1.193,1.068c-1.774.011-3.547,0-5.321,0" transform="translate(0.335 1.005)" fill="#d17a52"/>
  </g>
</svg>
